<svg width="290" height="74" viewBox="0 0 290 74" fill="none" xmlns="http://www.w3.org/2000/svg">
<g clip-path="url(#clip0_64_21874)">
<path fill-rule="evenodd" clip-rule="evenodd" d="M62.3521 21.912H50.2363L60.8677 0.648438H72.9835L62.3521 21.912Z" fill="#DE3F3A"/>
<path fill-rule="evenodd" clip-rule="evenodd" d="M24.3517 25.1214H60.7483L36.4921 73.635L21.6638 43.9779H33.7796L36.4921 49.4026L43.2165 35.9538H17.6519L0 0.648438H57.2576L51.842 11.4803H51.8402L49.2324 16.6962H37.1167L39.7244 11.4808H17.5315L24.3517 25.1214Z" fill="white"/>
</g>
<g clip-path="url(#clip1_64_21874)">
<path d="M91.7852 42.3613C90.9564 42.3613 90.114 42.2599 89.2581 42.0572C88.3977 41.8545 87.6815 41.5887 87.1094 41.2599L87.2242 38.1854H87.4472L88.15 39.6517C88.3617 40.0751 88.5869 40.449 88.8257 40.7734C89.0689 41.0977 89.4 41.35 89.8189 41.5302C90.1208 41.6788 90.4113 41.7802 90.6906 41.8342C90.9699 41.8838 91.283 41.9086 91.6298 41.9086C92.5443 41.9086 93.2695 41.6608 93.8056 41.1653C94.3417 40.6698 94.6097 40.0301 94.6097 39.2463C94.6097 38.5075 94.4295 37.9309 94.0691 37.5165C93.7042 37.1065 93.1231 36.7056 92.3258 36.3137L91.4001 35.9083C90.1072 35.3362 89.0959 34.6763 88.3662 33.9285C87.6364 33.1852 87.2715 32.1964 87.2715 30.9621C87.2715 30.0702 87.5013 29.3022 87.9608 28.658C88.4157 28.0093 89.0554 27.5115 89.8798 27.1647C90.6996 26.8178 91.6591 26.6444 92.7583 26.6444C93.5556 26.6444 94.3124 26.7503 95.0286 26.962C95.7404 27.1737 96.3598 27.4597 96.8868 27.8201L96.7517 30.5297H96.5287L95.603 28.8404C95.3462 28.3134 95.0894 27.9395 94.8327 27.7188C94.5759 27.5025 94.2831 27.3494 93.9543 27.2593C93.7561 27.1962 93.5759 27.1534 93.4137 27.1309C93.247 27.1084 93.0353 27.0971 92.7785 27.0971C92.0127 27.0971 91.3663 27.3201 90.8393 27.7661C90.3122 28.2075 90.0487 28.8044 90.0487 29.5567C90.0487 30.327 90.2514 30.9419 90.6568 31.4014C91.0622 31.8608 91.6569 32.2708 92.4407 32.6311L93.4813 33.0839C94.9228 33.7145 95.9611 34.388 96.5963 35.1042C97.2269 35.8205 97.5422 36.7417 97.5422 37.8678C97.5422 39.1922 97.0422 40.2734 96.0422 41.1112C95.0421 41.9446 93.6232 42.3613 91.7852 42.3613ZM108.583 42.2937C107.619 42.2937 106.871 42.0527 106.34 41.5707C105.804 41.0887 105.536 40.3207 105.536 39.2666V31.55H103.982V31.3203L104.522 31.2324C104.986 31.1243 105.389 30.9734 105.732 30.7797C106.07 30.5815 106.403 30.318 106.732 29.9891L108.583 27.935H108.813L108.745 31.0973H111.273V31.55H108.718V39.6787C108.718 40.2058 108.836 40.6044 109.07 40.8747C109.304 41.145 109.601 41.2801 109.962 41.2801C110.277 41.2801 110.556 41.2013 110.8 41.0437C111.038 40.886 111.279 40.672 111.523 40.4017L111.746 40.6247C111.444 41.1383 111.029 41.5437 110.502 41.841C109.975 42.1428 109.336 42.2937 108.583 42.2937ZM120.172 47.375C119.568 47.375 119.088 47.2241 118.732 46.9223C118.381 46.6205 118.205 46.2376 118.205 45.7736C118.205 45.3501 118.356 45.01 118.658 44.7533C118.96 44.501 119.298 44.3749 119.672 44.3749C120.05 44.3749 120.365 44.4537 120.618 44.6114C120.874 44.769 121.102 44.9988 121.3 45.3006L121.455 45.4763C121.789 45.9312 122.12 45.9245 122.449 45.456C122.584 45.2308 122.739 44.9335 122.915 44.5641C123.086 44.1947 123.284 43.7014 123.51 43.0843L119.131 32.6109C119.027 32.3226 118.915 32.0928 118.793 31.9216C118.672 31.746 118.476 31.5996 118.205 31.4824L117.8 31.3203V31.0973H123.422V31.3L122.969 31.4824C122.64 31.586 122.471 31.755 122.462 31.9892C122.453 32.219 122.51 32.5073 122.631 32.8541L124.976 38.9557L127.212 32.7865C127.334 32.4397 127.379 32.1514 127.348 31.9216C127.321 31.6874 127.134 31.5252 126.787 31.4351L126.314 31.3203V31.0973H129.449V31.3203L128.956 31.4824C128.609 31.586 128.368 31.7347 128.233 31.9284C128.098 32.1266 127.969 32.3991 127.848 32.746L124.212 42.6586C123.627 44.2397 123.039 45.42 122.449 46.1993C121.863 46.9831 121.104 47.375 120.172 47.375ZM141.308 41.9559H135.909V41.7329L136.179 41.6383C136.72 41.4581 136.99 41.0819 136.99 40.5098V28.4283C136.99 28.1309 136.931 27.9012 136.814 27.739C136.693 27.5814 136.481 27.4665 136.179 27.3944L135.888 27.3269V27.0971L140.017 26.1309L140.287 26.3336L140.199 29.4891V37.2124C140.199 37.771 140.202 38.3251 140.206 38.8746C140.215 39.4242 140.22 39.9693 140.22 40.5098C140.22 40.8117 140.281 41.0572 140.402 41.2464C140.524 41.4356 140.727 41.5752 141.01 41.6653L141.308 41.7329V41.9559ZM153.612 30.7594C154.59 30.7594 155.425 30.9576 156.119 31.3541C156.813 31.755 157.342 32.2978 157.707 32.9825C158.076 33.6672 158.261 34.4465 158.261 35.3204C158.261 35.4826 158.254 35.6515 158.241 35.8272C158.227 35.9984 158.198 36.1516 158.153 36.2867H151.423C151.436 37.9129 151.725 39.0841 152.288 39.8004C152.855 40.5166 153.696 40.8747 154.808 40.8747C155.56 40.8747 156.171 40.7531 156.639 40.5098C157.103 40.2711 157.538 39.9175 157.943 39.449L158.173 39.6517C157.705 40.4806 157.083 41.1292 156.308 41.5977C155.533 42.0617 154.603 42.2937 153.518 42.2937C152.45 42.2937 151.502 42.064 150.673 41.6045C149.849 41.145 149.202 40.4873 148.734 39.6314C148.265 38.771 148.031 37.7462 148.031 36.557C148.031 35.3227 148.303 34.2731 148.848 33.4082C149.389 32.5433 150.085 31.8856 150.936 31.4351C151.788 30.9847 152.68 30.7594 153.612 30.7594ZM153.545 31.2054C153.108 31.2054 152.734 31.3383 152.423 31.6041C152.117 31.8653 151.876 32.3316 151.7 33.0028C151.529 33.674 151.436 34.6177 151.423 35.834H155.281C155.434 34.1943 155.374 33.014 155.099 32.2933C154.828 31.568 154.31 31.2054 153.545 31.2054ZM178.316 29.5837C177.802 29.5837 177.37 29.4215 177.019 29.0972C176.663 28.7729 176.485 28.3629 176.485 27.8674C176.485 27.3539 176.663 26.9395 177.019 26.6241C177.37 26.3088 177.802 26.1511 178.316 26.1511C178.825 26.1511 179.253 26.3088 179.6 26.6241C179.947 26.9395 180.12 27.3539 180.12 27.8674C180.12 28.3629 179.947 28.7729 179.6 29.0972C179.253 29.4215 178.825 29.5837 178.316 29.5837ZM180.931 41.9559H175.647V41.7329L175.964 41.6383C176.266 41.5482 176.474 41.413 176.586 41.2329C176.699 41.0527 176.755 40.8117 176.755 40.5098V33.442C176.755 33.1267 176.699 32.8902 176.586 32.7325C176.474 32.5748 176.266 32.4667 175.964 32.4082L175.647 32.3338V32.1108L179.782 30.7797L180.005 31.0027L179.938 34.2123V40.5369C179.938 40.8342 179.994 41.0752 180.107 41.2599C180.224 41.4401 180.424 41.5752 180.708 41.6653L180.931 41.7329V41.9559ZM192.877 41.9559H187.573V41.7329L187.891 41.6383C188.418 41.4896 188.681 41.1225 188.681 40.5369V33.469C188.681 33.1357 188.627 32.8902 188.519 32.7325C188.415 32.5748 188.213 32.4667 187.911 32.4082L187.573 32.3136V32.0906L191.431 30.7797L191.661 31.0027L191.844 32.3609C192.366 31.8924 192.961 31.5072 193.627 31.2054C194.29 30.9081 194.943 30.7594 195.587 30.7594C196.582 30.7594 197.346 31.0297 197.878 31.5703C198.414 32.1108 198.682 32.9375 198.682 34.0501V40.5571C198.682 41.1428 198.968 41.5121 199.54 41.6653L199.743 41.7329V41.9559H194.411V41.7329L194.709 41.6383C195.236 41.4761 195.499 41.109 195.499 40.5369V33.3339C195.499 32.3699 195.017 31.8879 194.053 31.8879C193.391 31.8879 192.668 32.219 191.884 32.8811V40.5571C191.884 41.1428 192.148 41.5121 192.675 41.6653L192.877 41.7329V41.9559ZM222.615 41.9559H216.885V41.7329L217.291 41.5707C217.592 41.4536 217.8 41.3027 217.912 41.118C218.025 40.9378 218.081 40.699 218.081 40.4017V28.6107C218.081 28.2954 218.025 28.0476 217.912 27.8674C217.8 27.6872 217.592 27.5431 217.291 27.435L216.885 27.2796V27.0566H223.365C225.199 27.0566 226.523 27.3899 227.338 28.0566C228.149 28.7278 228.555 29.5747 228.555 30.5973C228.555 31.3676 228.257 32.0635 227.663 32.6852C227.068 33.3113 226.048 33.7528 224.602 34.0096C226.259 34.1898 227.473 34.6222 228.244 35.3069C229.01 35.9916 229.392 36.8228 229.392 37.8003C229.392 38.2823 229.287 38.7688 229.075 39.2598C228.863 39.7463 228.505 40.1945 228 40.6044C227.496 41.0099 226.809 41.3365 225.94 41.5842C225.066 41.832 223.958 41.9559 222.615 41.9559ZM221.419 27.5025V33.9825H222.392C223.401 33.9825 224.126 33.7506 224.568 33.2866C225.014 32.8181 225.237 32.005 225.237 30.8473C225.237 29.6445 225.034 28.7864 224.629 28.2728C224.223 27.7593 223.561 27.5025 222.642 27.5025H221.419ZM221.419 34.4353V41.5031H222.548C223.678 41.5031 224.518 41.2036 225.068 40.6044C225.617 40.0008 225.892 39.0593 225.892 37.78C225.892 36.5772 225.629 35.7191 225.102 35.2056C224.575 34.692 223.71 34.4353 222.507 34.4353H221.419ZM241.447 41.9559H236.055V41.7329L236.325 41.6383C236.866 41.4581 237.136 41.0819 237.136 40.5098V28.4283C237.136 28.1309 237.075 27.9012 236.954 27.739C236.836 27.5814 236.627 27.4665 236.325 27.3944L236.028 27.3269V27.0971L240.163 26.1309L240.433 26.3336L240.346 29.4891V37.2124C240.346 37.771 240.348 38.3251 240.352 38.8746C240.361 39.4242 240.366 39.9693 240.366 40.5098C240.366 40.8117 240.427 41.0572 240.548 41.2464C240.67 41.4356 240.873 41.5752 241.156 41.6653L241.447 41.7329V41.9559ZM250.799 29.5837C250.285 29.5837 249.853 29.4215 249.501 29.0972C249.146 28.7729 248.968 28.3629 248.968 27.8674C248.968 27.3539 249.146 26.9395 249.501 26.6241C249.853 26.3088 250.285 26.1511 250.799 26.1511C251.312 26.1511 251.74 26.3088 252.083 26.6241C252.429 26.9395 252.603 27.3539 252.603 27.8674C252.603 28.3629 252.429 28.7729 252.083 29.0972C251.74 29.4215 251.312 29.5837 250.799 29.5837ZM253.42 41.9559H248.136V41.7329L248.447 41.6383C248.749 41.5482 248.956 41.413 249.069 41.2329C249.182 41.0527 249.238 40.8117 249.238 40.5098V33.442C249.238 33.1267 249.182 32.8902 249.069 32.7325C248.956 32.5748 248.749 32.4667 248.447 32.4082L248.136 32.3338V32.1108L252.265 30.7797L252.495 31.0027L252.427 34.2123V40.5369C252.427 40.8342 252.483 41.0752 252.596 41.2599C252.709 41.4401 252.907 41.5752 253.191 41.6653L253.42 41.7329V41.9559ZM265.36 41.9559H260.056V41.7329L260.373 41.6383C260.901 41.4896 261.164 41.1225 261.164 40.5369V33.469C261.164 33.1357 261.11 32.8902 261.002 32.7325C260.898 32.5748 260.696 32.4667 260.394 32.4082L260.056 32.3136V32.0906L263.921 30.7797L264.144 31.0027L264.326 32.3609C264.853 31.8924 265.448 31.5072 266.11 31.2054C266.772 30.9081 267.426 30.7594 268.07 30.7594C269.065 30.7594 269.831 31.0297 270.367 31.5703C270.899 32.1108 271.164 32.9375 271.164 34.0501V40.5571C271.164 41.1428 271.451 41.5121 272.023 41.6653L272.225 41.7329V41.9559H266.901V41.7329L267.191 41.6383C267.718 41.4761 267.982 41.109 267.982 40.5369V33.3339C267.982 32.3699 267.5 31.8879 266.536 31.8879C265.874 31.8879 265.151 32.219 264.367 32.8811V40.5571C264.367 41.1428 264.63 41.5121 265.157 41.6653L265.36 41.7329V41.9559ZM283.678 38.0503C282.638 38.0503 281.757 37.8769 281.036 37.53V38.3003C281.036 38.7643 281.268 39.0413 281.732 39.1314L285.976 39.922C286.688 40.0571 287.33 40.2351 287.902 40.4558C288.474 40.672 288.931 40.9806 289.273 41.3815C289.62 41.7779 289.794 42.323 289.794 43.0167C289.794 43.7555 289.553 44.4379 289.071 45.0641C288.589 45.6857 287.879 46.1903 286.942 46.5777C286.001 46.9606 284.829 47.152 283.428 47.152C282.226 47.152 281.268 47.0281 280.557 46.7804C279.85 46.5281 279.349 46.2083 279.057 45.8209C278.764 45.429 278.617 45.0145 278.617 44.5776C278.617 44.0325 278.802 43.4852 279.172 42.9356C279.541 42.3861 279.996 41.9468 280.536 41.618C280.072 41.4378 279.735 41.2036 279.523 40.9153C279.311 40.6315 279.205 40.3229 279.205 39.9896C279.205 39.6922 279.284 39.4107 279.442 39.1449C279.6 38.8837 279.791 38.6156 280.016 38.3408L280.766 37.3949C279.667 36.7642 279.117 35.7709 279.117 34.415C279.117 33.3294 279.505 32.4487 280.28 31.773C281.055 31.0973 282.194 30.7594 283.699 30.7594C284.465 30.7594 285.138 30.8495 285.719 31.0297C286.3 31.2099 286.778 31.4644 287.152 31.7933C287.634 31.7212 288.089 31.5973 288.517 31.4216C288.949 31.2504 289.339 31.0139 289.686 30.7121L289.996 30.9351V32.0906H287.449C287.989 32.6897 288.26 33.4645 288.26 34.415C288.26 35.4691 287.872 36.3385 287.098 37.0232C286.323 37.7079 285.183 38.0503 283.678 38.0503ZM283.651 37.5976C284.255 37.5976 284.697 37.3498 284.976 36.8543C285.255 36.3588 285.395 35.5299 285.395 34.3677C285.395 33.21 285.255 32.3946 284.976 31.9216C284.697 31.4441 284.271 31.2054 283.699 31.2054C283.14 31.2054 282.719 31.4509 282.435 31.9419C282.147 32.4329 282.003 33.2573 282.003 34.415C282.003 35.5727 282.136 36.3926 282.401 36.8746C282.663 37.3566 283.079 37.5976 283.651 37.5976ZM280.286 43.8546C280.286 44.742 280.561 45.411 281.111 45.8614C281.66 46.3119 282.53 46.5371 283.719 46.5371C284.971 46.5371 285.913 46.3344 286.543 45.929C287.174 45.5236 287.489 44.9515 287.489 44.2127C287.489 43.7938 287.336 43.4559 287.03 43.1992C286.719 42.9424 286.197 42.7464 285.462 42.6113L281.374 41.841C281.253 41.814 281.131 41.7847 281.009 41.7531C280.802 42.055 280.629 42.3973 280.489 42.7802C280.354 43.1631 280.286 43.5212 280.286 43.8546Z" fill="white"/>
</g>
<defs>
<clipPath id="clip0_64_21874">
<rect width="72.9866" height="72.9866" fill="white" transform="translate(0 0.648438)"/>
</clipPath>
<clipPath id="clip1_64_21874">
<rect width="202.887" height="21.2441" fill="white" transform="translate(87.1094 26.1309)"/>
</clipPath>
</defs>
</svg>
